<?xml version="1.0" encoding="UTF-8" standalone="no"?>
<svg
   xmlns:dc="http://purl.org/dc/elements/1.1/"
   xmlns:cc="http://creativecommons.org/ns#"
   xmlns:rdf="http://www.w3.org/1999/02/22-rdf-syntax-ns#"
   xmlns:svg="http://www.w3.org/2000/svg"
   xmlns="http://www.w3.org/2000/svg"
   viewBox="0 0 759 559.10669"
   height="559.10669"
   width="759"
   xml:space="preserve"
   id="svg2"
   version="1.1"><metadata
     id="metadata8"><rdf:RDF><cc:Work
         rdf:about=""><dc:format>image/svg+xml</dc:format><dc:type
           rdf:resource="http://purl.org/dc/dcmitype/StillImage" /></cc:Work></rdf:RDF></metadata><defs
     id="defs6" /><g
     transform="matrix(1.3333333,0,0,-1.3333333,0,559.10667)"
     id="g10"><g
       transform="scale(0.1)"
       id="g12"><path
         id="path14"
         style="fill:#f3f2fa;fill-opacity:1;fill-rule:nonzero;stroke:none"
         d="m 768.117,2462.05 c 0,-916.32 1042.073,-1659.148 2327.543,-1659.148 1285.46,0 2327.53,742.828 2327.53,1659.148 0,916.32 -1042.07,1659.15 -2327.53,1659.15 -1285.47,0 -2327.543,-742.83 -2327.543,-1659.15" /><path
         id="path16"
         style="fill:#d9d8e8;fill-opacity:1;fill-rule:nonzero;stroke:none"
         d="M 0,196.152 C 0,105.879 475.703,32.6914 1062.51,32.6914 c 586.81,0 1062.51,73.1876 1062.51,163.4606 0,90.278 -475.7,163.469 -1062.51,163.469 C 475.703,359.621 0,286.43 0,196.152" /><path
         id="path18"
         style="fill:#d9d8e8;fill-opacity:1;fill-rule:nonzero;stroke:none"
         d="M 879.672,163.461 C 879.672,73.1797 1739.05,0 2799.15,0 c 1060.1,0 1919.48,73.1797 1919.48,163.461 0,90.281 -859.38,163.461 -1919.48,163.461 -1060.1,0 -1919.478,-73.18 -1919.478,-163.461" /><path
         id="path20"
         style="fill:#c8d7f1;fill-opacity:1;fill-rule:nonzero;stroke:none"
         d="m 2276.97,4193.2 c -198.21,-5.41 -362.21,-164.17 -373.61,-362.13 -6.71,-116.4 38.4,-222.32 114.31,-297.05 11.22,-11.04 16.43,-26.78 13.81,-42.3 l -28.51,-168.71 175.41,102.21 c 9.99,5.82 21.77,7.96 33.1,5.67 42.88,-8.64 88.31,-10.24 135.14,-3.15 173.29,26.26 308.49,169.72 324.47,344.26 21.3,232.62 -164.5,427.45 -394.12,421.2" /><path
         id="path22"
         style="fill:#040606;fill-opacity:1;fill-rule:nonzero;stroke:none"
         d="m 2263.63,3606.4 c 0,4.72 1.27,8.62 3.81,11.71 2.54,3.08 6,4.63 10.35,4.63 5.08,0 8.71,-1.45 10.9,-4.36 2.18,-2.91 3.26,-6.9 3.26,-11.98 0,-4.35 -1.18,-8.17 -3.53,-11.44 -2.37,-3.26 -5.91,-4.9 -10.63,-4.9 -4.72,0 -8.26,1.46 -10.62,4.36 -2.36,2.9 -3.54,6.89 -3.54,11.98 z m 6.54,68.63 -1.09,92.05 c 13.43,3.27 25.69,7.53 36.76,12.8 11.07,5.26 20.79,11.35 29.14,18.25 8.35,6.89 15.34,14.61 20.98,23.15 5.62,8.52 9.88,17.7 12.8,27.51 2.9,9.8 4.36,20.14 4.36,31.04 0,15.61 -3.82,30.31 -11.45,44.12 -7.62,13.79 -18.52,24.96 -32.68,33.5 -14.16,8.53 -31.04,12.8 -50.65,12.8 -21.06,0 -40.58,-5.82 -58.55,-17.43 -17.98,-11.63 -31.69,-31.41 -41.13,-59.37 l -9.8,6.53 c 8.35,26.5 22.33,46.84 41.94,61 19.61,14.17 41.94,21.25 66.99,21.25 21.43,0 40.22,-4.55 56.38,-13.62 16.15,-9.08 28.77,-21.34 37.85,-36.77 9.07,-15.43 13.63,-32.77 13.63,-52.01 0,-14.53 -2.46,-28.15 -7.36,-40.85 -4.9,-12.71 -11.8,-24.33 -20.7,-34.86 -8.9,-10.54 -19.7,-19.7 -32.41,-27.5 -12.72,-7.82 -27.05,-13.71 -43.03,-17.71 l -1.08,-83.88 h -10.9" /><path
         id="path24"
         style="fill:#040606;fill-opacity:1;fill-rule:nonzero;stroke:none"
         d="m 1162.82,426.191 17.08,-128.722 c 0,0 320.21,-136.399 290.51,-138.367 -29.71,-1.981 -489.867,27.707 -489.867,27.707 l 27.087,233.703 155.19,5.679" /><path
         id="path26"
         style="fill:none;stroke:#333436;stroke-width:10;stroke-linecap:butt;stroke-linejoin:miter;stroke-miterlimit:10;stroke-dasharray:none;stroke-opacity:1"
         d="m 1073.61,2527.75 c 0,0 -25.51,-245.6 -44.65,-258.36 -19.14,-12.76 -44.655,-19.14 -44.655,-19.14 l 41.465,280.69 z" /><path
         id="path28"
         style="fill:#040606;fill-opacity:1;fill-rule:nonzero;stroke:none"
         d="m 567.965,2696.57 c 0,0 -129.789,-293.08 -92.11,-456.36 l 719.455,109.74 -15,304.46 -612.345,42.16" /><path
         id="path30"
         style="fill:#040606;fill-opacity:1;fill-rule:nonzero;stroke:none"
         d="m 1195.31,2349.95 c 0,0 4.08,-703.15 9.08,-948.13 5,-244.98 47.84,-1001.539 47.84,-1001.539 0,0 -134.35,-74.07 -274.281,-14.211 -11.191,4.789 -131.73,1970.44 -131.73,1970.44 l 349.091,-6.56" /><path
         id="path32"
         style="fill:#040606;fill-opacity:1;fill-rule:nonzero;stroke:none"
         d="M 487.77,2327.24 184.18,393.859 c 0,0 132.578,-124.207 300.05,-11.168 l 308.7,1579.239 149.91,100.65 22.328,288.07 -477.398,-23.41" /><path
         id="path34"
         style="fill:#040606;fill-opacity:1;fill-rule:nonzero;stroke:none"
         d="m 408.055,441.719 27.64,-111.059 c 0,0 202.012,-242.9608 172.243,-242.9608 -29.77,0 -361.489,150.4028 -361.489,150.4028 l 42.528,231.39 119.078,-27.773" /><path
         id="path36"
         style="fill:none;stroke:#333436;stroke-width:10;stroke-linecap:butt;stroke-linejoin:miter;stroke-miterlimit:10;stroke-dasharray:none;stroke-opacity:1"
         d="m 598.668,2577.94 c 0,0 -191.324,-804.38 -333.547,-2224.549" /><path
         id="path38"
         style="fill:none;stroke:#333436;stroke-width:10;stroke-linecap:butt;stroke-linejoin:miter;stroke-miterlimit:10;stroke-dasharray:none;stroke-opacity:1"
         d="m 729.852,2491.41 c 0,0 -66.989,-167.46 -181.426,-170.26" /><path
         id="path40"
         style="fill:none;stroke:#333436;stroke-width:10;stroke-linecap:butt;stroke-linejoin:miter;stroke-miterlimit:10;stroke-dasharray:none;stroke-opacity:1"
         d="m 1012.82,374.48 -97.89,1664.3 95.62,100.28" /><path
         id="path42"
         style="fill:#7ccf7f;fill-opacity:1;fill-rule:nonzero;stroke:none"
         d="m 1011.54,3538.59 c 49.78,10.19 86.11,17.5 86.11,17.5 l 310.48,-169.57 c 0.52,-0.29 1.05,-0.58 1.58,-0.87 101.74,-56.14 146.71,-151.39 144.04,-284.88 l 15.08,-193.37 -168.25,136.54 -142.23,-274.27 -90.33,-323.79 C 685.98,2270.59 498.738,2585.31 498.738,2585.31 l 159.715,345.74 64.508,319.3 c 30.644,163.83 125.293,254.81 288.579,288.24" /><path
         id="path44"
         style="fill:#63a368;fill-opacity:1;fill-rule:nonzero;stroke:none"
         d="m 3617.97,2992.36 c 0,0 -48.64,-203.47 -323.9,-451.75 0,0 -26.27,37.16 32.49,180.36 58.77,143.2 279.88,322.17 291.41,271.39" /><path
         id="path46"
         style="fill:none;stroke:#040606;stroke-width:10;stroke-linecap:round;stroke-linejoin:miter;stroke-miterlimit:10;stroke-dasharray:none;stroke-opacity:1"
         d="m 3617.97,2992.36 c 0,0 -243.07,-151.35 -323.9,-451.75 0,0 -18.57,-103.61 11.4,-196.33" /><path
         id="path48"
         style="fill:#63a368;fill-opacity:1;fill-rule:nonzero;stroke:none"
         d="m 2982.61,2866.2 c 0,0 68.37,45.23 -35.9,175.82 -99.04,124.06 -205.13,236.4 -423.17,289.05 0,0 47.41,-302.94 186.53,-383.34 139.12,-80.41 272.54,-81.53 272.54,-81.53" /><path
         id="path50"
         style="fill:#63a368;fill-opacity:1;fill-rule:nonzero;stroke:none"
         d="m 2433.31,2680.89 c 0,0 226.84,-64.93 625.38,40.27 0,0 -21.61,41.89 -195.09,66.63 -173.48,24.74 -473.55,-70.47 -430.29,-106.9" /><path
         id="path52"
         style="fill:none;stroke:#040606;stroke-width:10;stroke-linecap:round;stroke-linejoin:miter;stroke-miterlimit:10;stroke-dasharray:none;stroke-opacity:1"
         d="m 2433.31,2680.89 c 0,0 285.39,128.43 625.38,40.27 0,0 34.84,-11.13 67.8,-61.6" /><path
         id="path54"
         style="fill:#63a368;fill-opacity:1;fill-rule:nonzero;stroke:none"
         d="m 2610.63,2460.23 c 0,0 235.81,-177.84 634.34,-72.64 0,0 -67.08,142.14 -240.56,166.88 -173.48,24.74 -437.04,-57.81 -393.78,-94.24" /><path
         id="path56"
         style="fill:none;stroke:#040606;stroke-width:10;stroke-linecap:round;stroke-linejoin:miter;stroke-miterlimit:10;stroke-dasharray:none;stroke-opacity:1"
         d="m 2610.63,2460.23 c 0,0 273.29,106.8 634.34,-72.64 0,0 42.39,-22.22 75.35,-72.69" /><path
         id="path58"
         style="fill:#040606;fill-opacity:1;fill-rule:nonzero;stroke:none"
         d="m 3494.55,3195.89 c 0,0 73.21,4.05 -114.61,-148.6 -177.35,-144.15 -156.14,-146.72 -156.14,-146.72 0,0 78.38,227.68 270.75,295.32" /><path
         id="path60"
         style="fill:#63a368;fill-opacity:1;fill-rule:nonzero;stroke:none"
         d="m 3096.97,2829.92 c 0,0 52.93,-24.4 156.57,59.15 103.63,83.56 152.96,281.4 241.01,306.82 0,0 -220.41,-55.91 -397.58,-365.97" /><path
         id="path62"
         style="fill:none;stroke:#040606;stroke-width:10;stroke-linecap:round;stroke-linejoin:miter;stroke-miterlimit:10;stroke-dasharray:none;stroke-opacity:1"
         d="m 3408.77,2119.3 c -96.14,229.46 -233.23,491.92 -426.16,746.9 0,0 -46.91,70.34 -213.65,255.57 -166.75,185.24 -245.42,209.3 -245.42,209.3" /><path
         id="path64"
         style="fill:none;stroke:#040606;stroke-width:10;stroke-linecap:round;stroke-linejoin:miter;stroke-miterlimit:10;stroke-dasharray:none;stroke-opacity:1"
         d="m 3468.36,3186.87 c 0,0 -211.22,-76.49 -371.39,-356.95 -38.79,-67.94 -1.31,-126.08 29.52,-170.36" /><path
         id="path66"
         style="fill:#63a368;fill-opacity:1;fill-rule:nonzero;stroke:none"
         d="m 5606.85,544.02 c 0,0 -204.85,-61.489 -546.69,160.039 0,0 22.45,59.511 177.06,69.082 154.6,9.578 410.67,-181.262 369.63,-229.121" /><path
         id="path68"
         style="fill:none;stroke:#040606;stroke-width:10;stroke-linecap:round;stroke-linejoin:miter;stroke-miterlimit:10;stroke-dasharray:none;stroke-opacity:1"
         d="m 5599.17,559.07 c 0,0 -225.03,177.071 -535.01,150.86 0,0 -103.74,-17.801 -180.73,-77.528" /><path
         id="path70"
         style="fill:#63a368;fill-opacity:1;fill-rule:nonzero;stroke:none"
         d="m 5160.95,1000.6 c 0,0 65.8,-48.889 153.12,93.59 82.95,135.35 152.49,273.32 127.8,496.27 0,0 -268.73,-147.66 -297,-305.84 -28.26,-158.18 16.08,-284.02 16.08,-284.02" /><path
         id="path72"
         style="fill:#040606;fill-opacity:1;fill-rule:nonzero;stroke:none"
         d="m 5689.34,746.102 c 0,0 43,-59.391 -186.99,16 -217.17,71.179 -207.86,51.949 -207.86,51.949 0,0 233.89,57.25 394.85,-67.949" /><path
         id="path74"
         style="fill:#63a368;fill-opacity:1;fill-rule:nonzero;stroke:none"
         d="m 5166.47,882.512 c 0,0 8.1,-57.723 134.44,-99.68 126.33,-41.973 319.41,23.57 388.43,-36.73 0,0 -166.26,155.128 -522.87,136.41" /><path
         id="path76"
         style="fill:none;stroke:#040606;stroke-width:10;stroke-linecap:round;stroke-linejoin:miter;stroke-miterlimit:10;stroke-dasharray:none;stroke-opacity:1"
         d="m 4603.63,345.719 c 183.06,168.48 383.21,386.703 557.32,654.881 0,0 50.18,68.04 167.62,287.87 117.44,219.83 113.3,301.99 113.3,301.99" /><path
         id="path78"
         style="fill:none;stroke:#040606;stroke-width:10;stroke-linecap:round;stroke-linejoin:miter;stroke-miterlimit:10;stroke-dasharray:none;stroke-opacity:1"
         d="m 5667.58,763.242 c 0,0 -178.6,136.27 -501.11,119.27 -78.13,-4.121 -113.53,-42.16 -172.1,-115.211" /><path
         id="path80"
         style="fill:#293970;fill-opacity:1;fill-rule:nonzero;stroke:none"
         d="m 3476.58,2582.8 c 62.68,0 123.38,21.99 171.51,62.15 l 133.54,111.44 c 48.06,40.1 105.15,61.59 163.63,61.59 h 662.78 c 60.15,0 108.9,-48.76 108.9,-108.9 V 2582.8 309.641 c 0,-103.789 -84.13,-187.922 -187.91,-187.922 H 1225.1 c -80.72,0 -146.16,65.441 -146.16,146.16 V 2436.63 c 0,80.73 65.44,146.17 146.16,146.17 h 2251.48" /><path
         id="path82"
         style="fill:#6576c3;fill-opacity:1;fill-rule:nonzero;stroke:none"
         d="m 1078.95,255.641 c 0,0 224.85,421.781 247.34,470.211 L 1940.8,1977.77 c 15.45,33.26 48.8,54.55 85.48,54.55 h 2283.57 c 83.02,0 203.09,43.51 266.83,96.7 l 92.15,76.89 c 48.05,40.1 105.14,61.59 163.63,61.59 h 630.74 c 67.13,0 112.74,-68.2 87.09,-130.25 L 4787.58,292.559 C 4744.83,189.16 4643.97,121.719 4532.07,121.719 H 1120.19 c -22.24,0 -42.77,19.051 -42.76,41.293 l 1.52,92.629" /><path
         id="path84"
         style="fill:none;stroke:#040606;stroke-width:10;stroke-linecap:butt;stroke-linejoin:round;stroke-miterlimit:10;stroke-dasharray:none;stroke-opacity:1"
         d="M 2007.8,1913.27 1106.07,160.41" /><path
         id="path86"
         style="fill:none;stroke:#040606;stroke-width:10;stroke-linecap:butt;stroke-linejoin:round;stroke-miterlimit:10;stroke-dasharray:none;stroke-opacity:1"
         d="m 2379.35,1611.21 h 776.75 c 21.18,0 40.89,10.66 52.26,28.26 v 0 c 26.25,40.61 -3.38,93.76 -52.26,93.76 h -776.75 c -21.18,0 -40.89,-10.66 -52.26,-28.26 v 0 c -26.25,-40.61 3.38,-93.76 52.26,-93.76 z" /><path
         id="path88"
         style="fill:none;stroke:#040606;stroke-width:10;stroke-linecap:round;stroke-linejoin:round;stroke-miterlimit:10;stroke-dasharray:none;stroke-opacity:1"
         d="M 3832.35,1008.75 3227.58,648.441" /><path
         id="path90"
         style="fill:none;stroke:#040606;stroke-width:10;stroke-linecap:round;stroke-linejoin:round;stroke-miterlimit:10;stroke-dasharray:none;stroke-opacity:1"
         d="M 3337.88,1026.11 3717.89,646.27" /><path
         id="path92"
         style="fill:none;stroke:#040606;stroke-width:10;stroke-linecap:round;stroke-linejoin:round;stroke-miterlimit:10;stroke-dasharray:none;stroke-opacity:1"
         d="M 3341.04,1122.71 C 3118.83,1012.89 3026.62,793.48 3135.1,632.652 c 108.48,-160.832 376.57,-202.183 598.78,-92.363 222.22,109.82 314.43,329.223 205.95,490.051 -108.48,160.83 -376.57,202.19 -598.79,92.37 z" /><path
         id="path94"
         style="fill:#7ccf7f;fill-opacity:1;fill-rule:nonzero;stroke:none"
         d="m 1233.26,2721.12 112.15,-125.94 c 0,0 -105.21,-124.14 -212.07,-50.61 l -17.14,24.58 117.06,151.97" /><path
         id="path96"
         style="fill:none;stroke:#040606;stroke-width:10;stroke-linecap:round;stroke-linejoin:miter;stroke-miterlimit:10;stroke-dasharray:none;stroke-opacity:1"
         d="m 972.664,3472.57 c 0,0 153.666,-40.26 32.766,-484.47" /><path
         id="path98"
         style="fill:none;stroke:#040606;stroke-width:10;stroke-linecap:round;stroke-linejoin:miter;stroke-miterlimit:10;stroke-dasharray:none;stroke-opacity:1"
         d="m 1242.67,2707.91 c -82.96,93.21 -184.36,210.33 -244.26,291.08" /><path
         id="path100"
         style="fill:none;stroke:#040606;stroke-width:10;stroke-linecap:round;stroke-linejoin:miter;stroke-miterlimit:10;stroke-dasharray:none;stroke-opacity:1"
         d="m 1133.34,2544.57 c -79.61,81.62 -187.207,197.82 -234.164,240.88 -73.188,67.11 -149.129,175.09 -124.375,313.81 l -2.973,111.22" /><path
         id="path102"
         style="fill:#7ccf7f;fill-opacity:1;fill-rule:nonzero;stroke:none"
         d="m 1611.28,2604.18 c -98.05,52.98 -143.22,118.57 -181.03,167.19 -90.2,115.97 -122.16,130.33 -95.73,265.31 l 1.45,141.26 195.69,-211.78 c 74.73,-99.14 247.01,-276.84 310.66,-346.86 0,0 -74.71,-99.58 -231.04,-15.12" /><path
         id="path104"
         style="fill:#f0896f;fill-opacity:1;fill-rule:nonzero;stroke:none"
         d="m 1212.19,2639.95 c 9.02,2.47 18.38,3.23 27.68,2.25 33.56,-3.55 123.49,-12.99 133.63,-13.12 12.5,-0.16 22.66,18.49 49.49,-49.15 26.82,-67.64 22,-73.94 21.85,-82.78 -0.16,-8.84 -19.61,-138.73 -40.52,-119.22 -20.9,19.51 -18.09,30.87 -18.09,30.87 0,0 -11.27,-52.75 -17.2,-50.71 -5.93,2.03 -27.9,2.1 -24.38,39.34 0,0 -11.98,-36.2 -24.33,-27.2 -12.35,9 -9.58,48.14 -9.58,48.14 0,0 -13.22,-29.38 -28.32,-9.76 -15.09,19.62 -3.84,65.05 -3.84,65.05 l -12.66,33.75 -27.36,11.83 c 0,0 -92.14,-24.1 -107.98,39.85 -12.18,49.14 51.48,72.62 81.61,80.86" /><path
         id="path106"
         style="fill:none;stroke:#040606;stroke-width:10;stroke-linecap:round;stroke-linejoin:miter;stroke-miterlimit:10;stroke-dasharray:none;stroke-opacity:1"
         d="m 1397.5,2557.02 17.31,-72.69 -28.58,-75.53" /><path
         id="path108"
         style="fill:none;stroke:#040606;stroke-width:10;stroke-linecap:round;stroke-linejoin:miter;stroke-miterlimit:10;stroke-dasharray:none;stroke-opacity:1"
         d="m 1353.09,2559.71 22.41,-74.51 -30.85,-87.77" /><path
         id="path110"
         style="fill:none;stroke:#040606;stroke-width:10;stroke-linecap:round;stroke-linejoin:miter;stroke-miterlimit:10;stroke-dasharray:none;stroke-opacity:1"
         d="m 1314.14,2551.4 13.04,-71.64 -14.93,-53.66" /><path
         id="path112"
         style="fill:none;stroke:#040606;stroke-width:10;stroke-linecap:round;stroke-linejoin:miter;stroke-miterlimit:10;stroke-dasharray:none;stroke-opacity:1"
         d="m 1238.9,3932.63 c -32.7,-30.6 -33.17,-67.81 -33.17,-67.81 0,0 -11.24,13.88 -25.14,18.33" /><path
         id="path114"
         style="fill:#f0896f;fill-opacity:1;fill-rule:nonzero;stroke:none"
         d="m 1705.86,2660.76 c 31.09,7.51 63.87,2.44 92.33,-12.15 37.45,-19.19 95.96,-48.91 103.58,-51.19 11.33,-3.38 18.72,2.75 20.22,-66.06 0.6,-27.19 0.51,-45.96 -1.91,-53.96 -2.43,-8.01 -57.39,-90.13 -75.44,-78.57 -0.49,0.32 -0.83,0.58 -1.27,0.88 -4.58,-6.14 -10.71,-13.68 -16.73,-18.82 -4.51,-3.85 -29.61,-3.33 -16.77,29.64 0,0 -17.4,-38.1 -30.93,-33.03 -17.63,6.62 -14.77,23.57 -8.34,37.92 -8.19,-11.07 -18.33,-20.08 -25.54,-10.5 -14.15,18.77 17.9,85.57 17.9,85.57 l 3.74,40.45 -24.47,21.9 c 0,0 -87.42,-2.15 -85.3,60.13 0.98,28.54 24.13,41.8 48.93,47.79" /><path
         id="path116"
         style="fill:none;stroke:#040606;stroke-width:10;stroke-linecap:round;stroke-linejoin:miter;stroke-miterlimit:10;stroke-dasharray:none;stroke-opacity:1"
         d="m 1897.73,2556.56 -1.1,-73.79 -53.82,-78.3" /><path
         id="path118"
         style="fill:none;stroke:#040606;stroke-width:10;stroke-linecap:round;stroke-linejoin:miter;stroke-miterlimit:10;stroke-dasharray:none;stroke-opacity:1"
         d="m 1859.52,2555.98 -4.2,-76.05 -45.45,-69.4" /><path
         id="path120"
         style="fill:none;stroke:#040606;stroke-width:10;stroke-linecap:round;stroke-linejoin:miter;stroke-miterlimit:10;stroke-dasharray:none;stroke-opacity:1"
         d="m 1820.72,2553.99 -5.45,-64.05 -38.78,-64.33" /><path
         id="path122"
         style="fill:#f0896f;fill-opacity:1;fill-rule:nonzero;stroke:none"
         d="m 1710.1,2571.06 c 0,0 8.77,-66.02 -12.53,-80.51 -21.3,-14.49 -55.66,122.02 -32.03,123.77 34.62,2.56 44.56,-43.26 44.56,-43.26" /><path
         id="path124"
         style="fill:none;stroke:#040606;stroke-width:10;stroke-linecap:round;stroke-linejoin:miter;stroke-miterlimit:10;stroke-dasharray:none;stroke-opacity:1"
         d="m 1739.14,2580.6 c 0,0 -21.19,-3.4 -27.25,-28.29" /><path
         id="path126"
         style="fill:none;stroke:#040606;stroke-width:10;stroke-linecap:round;stroke-linejoin:miter;stroke-miterlimit:10;stroke-dasharray:none;stroke-opacity:1"
         d="m 1327.92,2900.05 103,134.23 c 94.16,124.57 31.41,256.26 31.41,256.26" /><path
         id="path128"
         style="fill:none;stroke:#040606;stroke-width:10;stroke-linecap:round;stroke-linejoin:miter;stroke-miterlimit:10;stroke-dasharray:none;stroke-opacity:1"
         d="m 1568.83,2907.4 c 0,0 -60.68,84.13 -74.47,46.89" /><path
         id="path130"
         style="fill:none;stroke:#ffffff;stroke-width:10;stroke-linecap:butt;stroke-linejoin:miter;stroke-miterlimit:10;stroke-dasharray:none;stroke-opacity:1"
         d="m 1592.28,3607.54 -17.47,3.68" /><path
         id="path132"
         style="fill:#ffffff;fill-opacity:1;fill-rule:nonzero;stroke:none"
         d="m 1227.05,3623.8 -129.4,-67.71 c 0,0 -3.4,-153.58 141.93,-270.32 l 65.26,63.41 65.77,-65.79 c 0,0 25.01,19.66 32.45,108.82 l -11.73,108.27 -164.28,123.32" /><path
         id="path134"
         style="fill:none;stroke:#040606;stroke-width:10;stroke-linecap:round;stroke-linejoin:round;stroke-miterlimit:10;stroke-dasharray:none;stroke-opacity:1"
         d="m 1391.33,3500.48 -164.28,123.32 -129.4,-67.71" /><path
         id="path136"
         style="fill:#f0896f;fill-opacity:1;fill-rule:nonzero;stroke:none"
         d="m 1189.48,3600.52 c 0,0 40.02,-233.94 99.25,-250.52 59.24,-16.57 96.19,100.41 96.19,100.41 l -114.71,319.35 -80.73,-169.24" /><path
         id="path138"
         style="fill:#040606;fill-opacity:1;fill-rule:nonzero;stroke:none"
         d="m 1406.92,3422.28 0.7,-29.08 c 0.55,-0.3 -1.18,-8.99 -30.02,-12.29 -126.71,3.78 -136.74,146.35 -147.05,259.78 0,0 188.06,-195.77 176.37,-218.41" /><path
         id="path140"
         style="fill:#f0896f;fill-opacity:1;fill-rule:nonzero;stroke:none"
         d="m 1584.24,3740.32 c 0,0 32.55,-296.52 -141.39,-344.71 -173.94,-48.18 -215.61,235.48 -209.61,333.57 6,98.11 54.98,146.55 176.89,150.95 180.35,6.5 174.11,-139.81 174.11,-139.81" /><path
         id="path142"
         style="fill:#040606;fill-opacity:1;fill-rule:nonzero;stroke:none"
         d="m 1323.83,3820.69 c 0,0 -3.26,-62.32 -44.62,-74.77 l -29.74,-91.65 c 0,0 -24.92,40.73 -52.3,55.16 0,0 -30.24,121.03 7.83,169.12 38.07,48.09 90.99,72.47 219.02,61.83 97.45,-8.11 154.46,-77.24 173.08,-112.4 6.04,-11.41 20.69,-43.45 -13.56,-74.62 0,0 0.46,23.59 -19.54,51.17 0,0 -46.66,-95.39 -240.17,16.16" /><path
         id="path144"
         style="fill:#f0896f;fill-opacity:1;fill-rule:nonzero;stroke:none"
         d="m 1157.07,3638.55 c 10.73,-39.12 41.51,-64.99 68.75,-57.77 27.25,7.22 40.64,44.79 29.91,83.92 -10.72,39.13 -41.5,65 -68.75,57.77 -27.24,-7.22 -40.64,-44.79 -29.91,-83.92" /><path
         id="path146"
         style="fill:#040606;fill-opacity:1;fill-rule:nonzero;stroke:none"
         d="m 1407.86,3625.48 c -0.49,-10.07 4.29,-18.51 10.7,-18.83 6.4,-0.33 12,7.58 12.49,17.65 0.5,10.08 -4.29,18.52 -10.69,18.84 -6.41,0.33 -12,-7.58 -12.5,-17.66" /><path
         id="path148"
         style="fill:#040606;fill-opacity:1;fill-rule:nonzero;stroke:none"
         d="m 1542.02,3617.2 c -0.99,-9.45 2.88,-17.6 8.64,-18.22 5.76,-0.61 11.23,6.55 12.22,15.99 1,9.45 -2.87,17.6 -8.63,18.21 -5.76,0.62 -11.24,-6.54 -12.23,-15.98" /><path
         id="path150"
         style="fill:none;stroke:#040606;stroke-width:10;stroke-linecap:round;stroke-linejoin:miter;stroke-miterlimit:10;stroke-dasharray:none;stroke-opacity:1"
         d="m 1369.57,3705.31 c 0,0 46.07,-9.88 49.14,33.82" /><path
         id="path152"
         style="fill:none;stroke:#040606;stroke-width:10;stroke-linecap:round;stroke-linejoin:miter;stroke-miterlimit:10;stroke-dasharray:none;stroke-opacity:1"
         d="m 1525.67,3708.89 c 0,0 11.74,-40.61 46.38,-17.1" /><path
         id="path154"
         style="fill:#040606;fill-opacity:1;fill-rule:nonzero;stroke:none"
         d="m 1399.81,3463.04 c 0,0 -15.19,61.89 -62.33,26.41 l 62.33,-26.41" /><path
         id="path156"
         style="fill:none;stroke:#040606;stroke-width:10;stroke-linecap:round;stroke-linejoin:round;stroke-miterlimit:10;stroke-dasharray:none;stroke-opacity:1"
         d="m 1184.41,3672.62 c 0,0 30.65,26.36 47.39,-21.84 0,0 -17.9,-19 -6.6,-33.91 0,0 -17.65,-4.01 -26.36,11.56" /><path
         id="path158"
         style="fill:none;stroke:#040606;stroke-width:10;stroke-linecap:round;stroke-linejoin:round;stroke-miterlimit:10;stroke-dasharray:none;stroke-opacity:1"
         d="m 1197.68,3654.18 c 0,0 1.71,10.71 13.6,22.93" /><path
         id="path160"
         style="fill:none;stroke:#ffffff;stroke-width:10;stroke-linecap:butt;stroke-linejoin:miter;stroke-miterlimit:10;stroke-dasharray:none;stroke-opacity:1"
         d="m 1515.42,3618.73 c 0,-28.64 17.61,-51.86 39.32,-51.86 21.72,0 39.32,23.22 39.32,51.86 0,28.64 -17.6,51.86 -39.32,51.86 -21.71,0 -39.32,-23.22 -39.32,-51.86 z" /><path
         id="path162"
         style="fill:none;stroke:#ffffff;stroke-width:10;stroke-linecap:butt;stroke-linejoin:miter;stroke-miterlimit:10;stroke-dasharray:none;stroke-opacity:1"
         d="m 1368.26,3625.82 c 0,-30.35 22.41,-54.95 50.06,-54.95 27.64,0 50.05,24.6 50.05,54.95 0,30.35 -22.41,54.96 -50.05,54.96 -27.65,0 -50.06,-24.61 -50.06,-54.96 z" /><path
         id="path164"
         style="fill:none;stroke:#ffffff;stroke-width:10;stroke-linecap:butt;stroke-linejoin:miter;stroke-miterlimit:10;stroke-dasharray:none;stroke-opacity:1"
         d="m 1517.2,3603.71 c 0,0 -12.18,51.66 -51.66,3.67" /><path
         id="path166"
         style="fill:none;stroke:#ffffff;stroke-width:10;stroke-linecap:butt;stroke-linejoin:miter;stroke-miterlimit:10;stroke-dasharray:none;stroke-opacity:1"
         d="m 1369.32,3646.62 -116.31,26.2" /><path
         id="path168"
         style="fill:none;stroke:#040606;stroke-width:10;stroke-linecap:round;stroke-linejoin:miter;stroke-miterlimit:10;stroke-dasharray:none;stroke-opacity:1"
         d="m 1522.06,3580.87 c 5.76,-7.32 6.96,-16.03 4.06,-25.45 -2.88,-9.3 -12.35,-14.96 -21.96,-14.76 -4.44,0.09 -8.72,1.3 -12.92,2.61 -1.84,0.58 -5.49,2.55 -7.46,1.67 -9.59,-4.24 -20.77,4.13 -17.57,10.67" /></g></g></svg>